<svg width="32768" height="6676" viewBox="0 0 32768 6676" fill="none" xmlns="http://www.w3.org/2000/svg">
<g clip-path="url(#clip0)">
<rect x="3160.69" y="4273.37" width="6334.79" height="3142.8" fill="#EAD7E1"/>
<rect width="32768" height="6675.38" fill="#171D21"/>
<circle cx="26766.3" cy="3894.78" r="2025.64" fill="#FF5964"/>
<ellipse cx="918.246" cy="4540.58" rx="2103.15" ry="1962.29" transform="rotate(0.869712 918.246 4540.58)" fill="#F2F5EA"/>
<ellipse cx="3271.26" cy="5188.11" rx="2381.07" ry="1825.29" transform="rotate(0.869712 3271.26 5188.11)" fill="#F2F5EA"/>
<ellipse cx="5845.54" cy="5784.84" rx="2522.74" ry="1851.99" transform="rotate(0.869712 5845.54 5784.84)" fill="#F2F5EA"/>
<ellipse cx="9805.87" cy="6167.77" rx="2761.94" ry="2059.9" transform="rotate(0.869712 9805.87 6167.77)" fill="#F2F5EA"/>
<ellipse cx="13835.1" cy="6749.27" rx="2769.6" ry="2166.56" transform="rotate(0.869712 13835.1 6749.27)" fill="#F2F5EA"/>
<ellipse cx="17452.1" cy="6658.18" rx="2722.58" ry="2083.62" transform="rotate(0.869712 17452.1 6658.18)" fill="#F2F5EA"/>
<ellipse cx="21247.3" cy="6528.07" rx="3099.65" ry="2207.9" transform="rotate(0.869712 21247.3 6528.07)" fill="#F2F5EA"/>
<ellipse cx="24740.6" cy="6203.55" rx="2588.69" ry="2098.31" transform="rotate(0.869712 24740.6 6203.55)" fill="#F2F5EA"/>
<ellipse cx="27093.2" cy="5892.73" rx="2023.41" ry="1757.34" transform="rotate(0.869712 27093.2 5892.73)" fill="#F2F5EA"/>
<ellipse cx="31265.3" cy="5205.86" rx="2718.37" ry="2080.42" transform="rotate(0.869712 31265.3 5205.86)" fill="#F2F5EA"/>
<ellipse cx="28557.7" cy="5216.56" rx="2023.41" ry="1757.34" transform="rotate(0.869713 28557.7 5216.56)" fill="#F2F5EA"/>
<path d="M26453.2 5916.69L26547.9 6091.83H25563.8L25675.7 5678.38L25495 5796.1L25658.5 5345.32L25477.8 5468.78L25867.9 4805.54L25612.6 5061.08L25867.9 4351.89L25658.5 4567.23L26057.3 3326.88L26398.7 4630.4L26203.6 4435.16L26622.4 5282.16L26286.8 4986.43L26697 5810.46L26487.6 5641.06L26697 6045.89L26453.2 5916.69Z" fill="#3D5366"/>
<path d="M31829.7 4519.66L31912.2 4633.34H31055.1L31152.5 4364.99L30995.1 4441.39L31137.5 4148.81L30980.1 4228.95L31246.2 3878.36L30980.1 4005.48L31319.9 3504.02L31137.5 3602.89L31484.9 2838.73L31711 3602.89L31578.1 3454.53L31912.2 4005.48L31782.2 3927.72L32042.1 4450.71L31859.7 4340.76L32042.1 4603.52L31829.7 4519.66Z" fill="#3D5366"/>
<path d="M24567.1 6248.26L24634.5 6372.8H23934.1L24013.8 6078.81L23885.1 6162.52L23993.7 5868.21L23885.1 5841.99L24150.6 5458.18L23885.1 5586.8L24150.6 5135.61L24001.5 5288.73L24285.4 4406.78L24528.3 5333.64L24389.5 5194.82L24687.6 5797.08L24448.7 5586.8L24740.7 6172.72L24591.6 6052.27L24740.7 6340.13L24567.1 6248.26Z" fill="#3D5366"/>
<path d="M2540.76 4808.48L7598.77 6424.96V10292.9L2497.4 12226.9L-2603.97 10292.9V6424.96L2540.76 4808.48Z" fill="#8EB897"/>
<path d="M6448.73 6383.23H5635.13L5779.68 5573.93L5564.93 5723.01L5891.19 4609.47L5564.93 5160.15L6192.67 3428.98L6523.07 4807.23L6316.57 4667.27L6609.79 6136.79L6316.57 5643.91L6448.73 6383.23Z" fill="#8EB897"/>
<path d="M2058.45 7042.79H1160.72L1274.98 6517.46L1070.95 6774.02L1274.98 6122.44L1070.95 6338.28L1385.16 5694.84L1213.77 5890.32L1511.65 4969.96L1274.98 5291.68L1715.68 3736.03L2021.72 5071.77L1756.49 4725.62L2144.14 5788.51L1878.9 5515.66L2144.14 6708.86L1919.71 6236.47L2058.45 7042.79Z" fill="#8EB897"/>
<path d="M4956.49 7110.89L5117.77 7334.94H3441.45L3632.05 6806.04L3324.16 6956.63L3602.73 6379.97L3294.84 6537.91L3959.5 5689.46L3524.53 6016.35L3959.5 5109.13L3602.73 5384.61L4282.05 3797.89L4863.63 5465.41L4531.3 5215.65L5244.83 6299.17L4673.03 5920.86L5371.9 6974.99L5015.13 6758.29L5371.9 7276.17L4956.49 7110.89Z" fill="#171D21"/>
<path d="M300.481 6022.04L122.418 6408.57H1324.34L1101.76 5404.18L1324.34 5588.66L1101.76 4634.04L1242.73 4683.82L866.748 3287.04L1101.76 3594.81L701.123 1945.9L326.449 3500.81L534.189 3287.04L122.418 5196.27L419.19 4765.82L0 6212.38L300.481 6022.04Z" fill="#8EB897"/>
<path d="M1765.16 6857.89L1556.56 7124.77L3049.64 7072.5L2811.77 6373.65L3049.64 6535.98L2870.33 6090.26L3049.64 6321.37L2811.77 5793.11H2991.09L2742.24 5036.48L2991.09 5185.06L2672.71 4761.34L2870.33 4819.12L2445.82 3473.7L2021.32 4819.12L2266.51 4700.81L1637.07 5561.99L2021.32 5399.66L1765.16 5859.14L2021.32 5666.55L1556.56 6535.98L2021.32 6181.05L1417.5 6954.19L1765.16 6857.89Z" fill="#171D21"/>
<path d="M6464.34 4540.93L10646.2 7234.14V15288.1L6517.75 19315.1L2389.33 15288.1V7234.14L6464.34 4540.93Z" fill="#171D21"/>
<path d="M29254.6 4273.32L36624.4 5224.37L37069.6 9756.77L29924.2 12746.8L22333.6 11204.4L21888.3 6671.96L29254.6 4273.32Z" fill="#3D5366"/>
</g>
<defs>
<clipPath id="clip0">
<rect width="43968" height="8957" fill="white" transform="scale(0.745269)"/>
</clipPath>
</defs>
</svg>
