<svg id="Layer_1" data-name="Layer 1" xmlns="http://www.w3.org/2000/svg" viewBox="0 0 1000 284.88"><defs><style>.cls-1{fill:#ead7e1;}.cls-2{fill:#8eb897;}.cls-3{fill:#3d5366;}.cls-4{fill:#171d21;}</style></defs><rect class="cls-1" width="1000" height="284.88"/><path class="cls-2" d="M287.58,15.21C194.13,26.79,5.78,50.22,0,51.26V171H1000V4.69L836.57,30.22C796.24,20.65,714.85,1.24,712,.2s-177.57,29.59-264.56,45Z"/><path class="cls-3" d="M191.26,121.76C132.87,130.28,12.87,148.35,0,152.47V222H1000V116.15L846.89,150.29,719.08,116.15c-34.33,9-104,27.4-108.05,29.15-5.06,2.18-178.85-28.69-187.58-29.15-7-.38-75.86,17.82-109.43,27Z"/><path class="cls-4" d="M161.24,227.2C156.5,226.82,51.77,245.85,0,255.41v29.31H1000V243.1L859.92,215.82,682.61,243.1l-156.16-36-261.11,36C232.61,238,166,227.57,161.24,227.2Z"/></svg>